<svg xmlns="http://www.w3.org/2000/svg" width="926" height="1132" viewBox="0 0 926 1132">
<style>
  .icon-dark { fill: #000000; }
  .icon-near-dark { fill: #010101; }
  .icon-light { fill: transparent; }
  
  @media (prefers-color-scheme: dark) {
    .icon-dark { fill: #ffffff; }
    .icon-near-dark { fill: #fefefe; }
    .icon-light { fill: transparent; }
  }
</style>
<g>
<path class="icon-dark" d="M 617.04 969.88 C616.51,969.94 615.27,970.79 614.29,971.75 C612.59,973.41 600.55,973.49 385.75,973.25 L 159.00 973.00 L 159.00 399.07 L 161.25 397.89 C162.49,397.23 163.82,396.21 164.21,395.60 C164.61,395.00 165.28,394.48 165.71,394.45 C167.74,394.32 171.00,392.77 171.00,391.93 C171.00,391.42 171.64,391.00 172.43,391.00 C173.21,391.00 174.64,390.21 175.61,389.25 C176.57,388.29 177.73,387.44 178.18,387.38 C178.63,387.31 179.42,387.19 179.93,387.12 C180.44,387.06 181.64,386.21 182.61,385.25 C183.57,384.29 184.73,383.44 185.18,383.38 C185.63,383.31 186.43,383.19 186.96,383.12 C187.49,383.06 188.84,382.02 189.96,380.81 C191.08,379.61 192.00,378.98 192.00,379.41 C192.00,380.36 201.21,375.11 202.21,373.59 C202.61,372.99 203.39,372.44 203.96,372.38 C204.53,372.31 205.42,372.19 205.93,372.12 C206.44,372.06 207.64,371.21 208.61,370.25 C209.57,369.29 210.73,368.44 211.18,368.38 C211.63,368.31 212.43,368.19 212.96,368.12 C213.49,368.06 214.84,367.02 215.96,365.81 C217.08,364.61 218.00,363.95 218.00,364.35 C218.00,365.25 227.22,360.01 228.21,358.55 C228.61,357.97 229.39,357.44 229.96,357.38 C230.53,357.31 231.42,357.19 231.93,357.12 C232.44,357.06 233.64,356.21 234.61,355.25 C235.57,354.29 236.73,353.44 237.18,353.38 C237.63,353.31 238.42,353.19 238.93,353.12 C239.44,353.06 240.47,352.44 241.21,351.75 C241.96,351.06 244.90,349.24 247.75,347.71 C252.70,345.05 253.08,344.99 255.97,346.48 C257.64,347.35 259.01,347.70 259.03,347.28 C259.05,346.85 259.69,347.32 260.45,348.33 C261.21,349.33 262.52,350.25 263.37,350.38 C264.21,350.50 265.79,351.40 266.86,352.38 C267.94,353.35 269.48,354.25 270.27,354.36 C271.07,354.48 272.49,355.35 273.43,356.29 C274.37,357.23 275.56,358.06 276.07,358.12 C276.58,358.19 277.37,358.31 277.82,358.38 C278.27,358.44 279.43,359.29 280.39,360.25 C281.36,361.21 282.56,362.06 283.07,362.12 C283.58,362.19 284.37,362.31 284.82,362.38 C285.27,362.44 286.43,363.29 287.39,364.25 C288.36,365.21 289.79,366.00 290.57,366.00 C291.36,366.00 292.00,366.42 292.00,366.93 C292.00,367.72 295.15,369.29 297.07,369.45 C297.39,369.48 298.43,370.29 299.39,371.25 C300.36,372.21 301.56,373.06 302.07,373.12 C302.58,373.19 303.37,373.31 303.82,373.38 C304.27,373.44 305.33,374.19 306.18,375.03 C307.02,375.88 309.90,377.68 312.58,379.03 C315.26,380.39 318.05,382.06 318.80,382.75 C319.54,383.44 320.56,384.06 321.07,384.12 C321.58,384.19 322.37,384.31 322.82,384.38 C323.27,384.44 324.43,385.29 325.39,386.25 C326.36,387.21 327.56,388.06 328.07,388.12 C328.58,388.19 329.47,388.31 330.04,388.38 C330.61,388.44 331.39,388.99 331.79,389.59 C332.79,391.11 342.00,396.36 342.00,395.41 C342.00,394.98 342.92,395.61 344.04,396.81 C345.16,398.02 346.51,399.06 347.04,399.12 C347.57,399.19 348.47,399.31 349.04,399.38 C349.61,399.44 350.39,399.99 350.79,400.58 C351.18,401.17 353.96,402.97 356.97,404.58 C359.97,406.19 363.04,408.06 363.79,408.75 C364.53,409.44 365.56,410.06 366.07,410.12 C366.58,410.19 367.37,410.31 367.82,410.38 C368.27,410.44 369.43,411.29 370.39,412.25 C371.36,413.21 372.56,414.06 373.07,414.12 C373.58,414.19 374.47,414.31 375.04,414.38 C375.61,414.44 376.39,414.99 376.79,415.59 C377.79,417.11 387.00,422.36 387.00,421.41 C387.00,420.98 387.92,421.61 389.04,422.81 C390.16,424.02 391.51,425.06 392.04,425.12 C392.57,425.19 393.37,425.31 393.82,425.38 C394.27,425.44 395.43,426.29 396.39,427.25 C397.35,428.21 399.23,429.27 400.57,429.61 C401.91,429.94 403.00,430.52 403.00,430.89 C403.00,431.27 405.57,432.90 408.72,434.54 C411.86,436.17 415.04,438.06 415.79,438.75 C416.53,439.44 417.56,440.06 418.07,440.12 C418.58,440.19 419.37,440.31 419.82,440.38 C420.27,440.44 421.40,441.26 422.33,442.18 C423.25,443.11 425.02,444.18 426.26,444.57 C427.49,444.95 428.77,445.69 429.10,446.20 C429.43,446.71 430.38,447.23 431.21,447.35 C432.04,447.48 433.49,448.35 434.43,449.29 C435.37,450.23 437.23,451.27 438.57,451.61 C439.91,451.94 441.00,452.59 441.00,453.04 C441.00,453.74 444.27,455.30 446.07,455.45 C446.39,455.48 447.33,456.19 448.18,457.03 C449.02,457.88 451.90,459.68 454.58,461.03 C457.26,462.39 460.05,464.06 460.80,464.75 C461.54,465.44 462.56,466.06 463.07,466.12 C463.58,466.19 464.37,466.31 464.82,466.38 C465.27,466.44 466.43,467.29 467.39,468.25 C468.36,469.21 469.56,470.06 470.07,470.12 C470.58,470.19 471.47,470.31 472.04,470.38 C472.61,470.44 473.39,470.99 473.79,471.59 C474.79,473.11 484.00,478.36 484.00,477.41 C484.00,476.98 484.92,477.61 486.04,478.81 C487.16,480.02 488.51,481.06 489.04,481.12 C489.57,481.19 490.37,481.31 490.82,481.38 C491.27,481.44 492.33,482.19 493.18,483.03 C494.02,483.88 496.90,485.68 499.58,487.03 C502.26,488.39 505.05,490.06 505.80,490.75 C506.54,491.44 507.56,492.06 508.07,492.12 C508.58,492.19 509.37,492.31 509.82,492.38 C510.27,492.44 511.43,493.29 512.39,494.25 C513.36,495.21 514.56,496.06 515.07,496.12 C515.58,496.19 516.47,496.31 517.04,496.38 C517.61,496.44 518.39,496.99 518.79,497.59 C519.79,499.11 529.00,504.36 529.00,503.41 C529.00,502.98 529.92,503.61 531.04,504.81 C532.16,506.02 533.51,507.06 534.04,507.12 C534.57,507.19 535.47,507.31 536.04,507.38 C536.61,507.44 537.39,507.96 537.79,508.53 C538.68,509.82 552.74,518.14 554.46,518.39 C555.15,518.49 556.49,519.35 557.43,520.29 C558.37,521.23 559.56,522.06 560.07,522.12 C560.58,522.19 561.37,522.31 561.82,522.38 C562.27,522.44 563.40,523.26 564.33,524.18 C565.25,525.11 567.02,526.18 568.26,526.57 C569.49,526.95 570.77,527.69 571.10,528.20 C571.43,528.71 572.38,529.23 573.21,529.35 C574.04,529.48 575.49,530.35 576.43,531.29 C577.37,532.23 578.56,533.06 579.07,533.12 C579.58,533.19 580.37,533.31 580.82,533.38 C581.27,533.44 582.43,534.29 583.39,535.25 C584.36,536.21 585.56,537.06 586.07,537.12 C586.58,537.19 587.37,537.31 587.82,537.38 C588.27,537.44 589.33,538.19 590.18,539.03 C591.02,539.88 593.90,541.68 596.58,543.03 C599.26,544.39 602.05,546.06 602.80,546.75 C603.54,547.44 604.56,548.06 605.07,548.12 C605.58,548.19 606.47,548.31 607.04,548.38 C607.61,548.44 608.39,548.97 608.79,549.55 C609.74,550.95 625.37,560.00 626.84,560.00 C627.48,560.00 628.00,560.42 628.00,560.93 C628.00,561.77 631.26,563.32 633.29,563.45 C633.72,563.48 634.39,563.96 634.79,564.53 C635.68,565.82 649.74,574.14 651.46,574.39 C652.15,574.49 653.49,575.35 654.43,576.29 C655.37,577.23 656.56,578.06 657.07,578.12 C657.58,578.19 658.37,578.31 658.82,578.38 C659.27,578.44 660.33,579.19 661.18,580.03 C662.02,580.88 664.90,582.68 667.58,584.03 C670.26,585.39 673.05,587.06 673.80,587.75 C674.54,588.44 675.56,589.06 676.07,589.12 C676.58,589.19 677.37,589.31 677.82,589.38 C678.27,589.44 679.43,590.29 680.39,591.25 C681.36,592.21 682.56,593.06 683.07,593.12 C683.58,593.19 684.47,593.31 685.04,593.38 C685.61,593.44 686.39,593.99 686.79,594.59 C687.79,596.11 697.00,601.36 697.00,600.41 C697.00,599.98 697.92,600.61 699.04,601.81 C700.16,603.02 701.51,604.06 702.04,604.12 C702.57,604.19 703.37,604.31 703.82,604.38 C704.27,604.44 705.33,605.19 706.18,606.03 C707.02,606.88 709.90,608.68 712.58,610.03 C715.26,611.39 718.05,613.06 718.80,613.75 C719.54,614.44 720.56,615.06 721.07,615.12 C721.58,615.19 722.37,615.31 722.82,615.38 C723.27,615.44 724.43,616.29 725.39,617.25 C726.36,618.21 727.56,619.06 728.07,619.12 C728.58,619.19 729.47,619.31 730.04,619.38 C730.61,619.44 731.39,619.99 731.79,620.59 C732.79,622.11 742.00,627.36 742.00,626.41 C742.00,625.98 742.92,626.61 744.04,627.81 C745.16,629.02 746.51,630.06 747.04,630.12 C747.57,630.19 748.37,630.31 748.82,630.38 C749.27,630.44 750.43,631.29 751.39,632.25 C752.36,633.21 753.56,634.06 754.07,634.12 C754.58,634.19 755.47,634.31 756.04,634.38 C756.61,634.44 757.44,635.09 757.89,635.82 C758.33,636.54 759.33,637.23 760.10,637.34 C760.87,637.46 762.74,638.64 764.25,639.96 L 767.00 642.36 L 767.00 882.64 L 764.25 885.06 C762.74,886.38 761.16,887.53 760.75,887.61 C760.34,887.69 759.58,887.81 759.07,887.88 C758.56,887.94 757.36,888.79 756.39,889.75 C755.43,890.71 754.39,891.52 754.07,891.55 C752.15,891.71 749.00,893.28 749.00,894.07 C749.00,894.58 748.36,895.00 747.57,895.00 C746.79,895.00 745.53,895.62 744.77,896.37 C744.02,897.12 742.42,898.05 741.21,898.43 C740.00,898.82 738.25,899.89 737.33,900.82 C736.40,901.74 735.27,902.56 734.82,902.62 C734.37,902.69 733.57,902.81 733.04,902.88 C732.51,902.94 731.16,903.98 730.04,905.19 C728.92,906.39 728.00,907.02 728.00,906.59 C728.00,905.80 718.92,910.73 718.00,912.03 C717.72,912.41 716.49,913.05 715.26,913.43 C714.02,913.82 712.25,914.89 711.33,915.82 C710.40,916.74 709.27,917.56 708.82,917.62 C708.37,917.69 707.57,917.81 707.04,917.88 C706.51,917.94 705.16,918.98 704.04,920.19 C702.92,921.39 702.00,922.02 702.00,921.59 C702.00,920.64 692.79,925.89 691.79,927.41 C691.39,928.01 690.61,928.56 690.04,928.62 C689.47,928.69 688.58,928.81 688.07,928.88 C687.56,928.94 686.36,929.79 685.39,930.75 C684.43,931.71 683.27,932.56 682.82,932.62 C682.37,932.69 681.57,932.81 681.04,932.88 C680.51,932.94 679.16,933.98 678.04,935.19 C676.92,936.39 676.00,937.05 676.00,936.65 C676.00,935.75 666.78,940.99 665.79,942.45 C665.39,943.03 664.61,943.56 664.04,943.62 C663.47,943.69 662.57,943.81 662.04,943.88 C661.51,943.94 660.16,944.98 659.04,946.19 C657.92,947.39 657.00,948.02 657.00,947.59 C657.00,946.64 647.79,951.89 646.79,953.41 C646.39,954.01 645.61,954.56 645.04,954.62 C644.47,954.69 643.58,954.81 643.07,954.88 C642.56,954.94 641.36,955.79 640.39,956.75 C639.43,957.71 638.27,958.56 637.82,958.62 C637.37,958.69 636.57,958.81 636.04,958.88 C635.51,958.94 634.16,959.98 633.04,961.19 C631.92,962.39 631.00,963.05 631.00,962.65 C631.00,961.75 621.78,966.99 620.79,968.45 C620.39,969.03 619.61,969.56 619.04,969.62 C618.47,969.69 617.57,969.81 617.04,969.88 ZM 672.66 554.46 C668.26,557.04 666.79,557.46 665.76,556.42 C665.44,556.11 664.53,555.75 663.73,555.64 C662.93,555.52 661.51,554.65 660.57,553.71 C659.63,552.77 658.44,551.94 657.93,551.88 C657.42,551.81 656.53,551.69 655.96,551.62 C655.39,551.56 654.61,551.03 654.21,550.45 C653.22,548.99 644.00,543.75 644.00,544.65 C644.00,545.05 643.08,544.39 641.96,543.19 C640.84,541.98 639.49,540.94 638.96,540.88 C638.43,540.81 637.63,540.69 637.18,540.62 C636.73,540.56 635.60,539.74 634.67,538.82 C633.75,537.89 631.98,536.82 630.74,536.43 C629.51,536.05 628.28,535.41 628.00,535.03 C627.08,533.73 618.00,528.80 618.00,529.59 C618.00,530.02 617.08,529.39 615.96,528.19 C614.84,526.98 613.49,525.94 612.96,525.88 C612.43,525.81 611.63,525.69 611.18,525.62 C610.73,525.56 609.57,524.71 608.61,523.75 C607.64,522.79 606.44,521.94 605.93,521.88 C605.42,521.81 604.53,521.69 603.96,521.62 C603.39,521.56 602.56,520.91 602.11,520.18 C601.67,519.46 600.62,518.77 599.79,518.65 C598.96,518.52 597.51,517.65 596.57,516.71 C595.63,515.77 594.44,514.94 593.93,514.88 C593.42,514.81 592.63,514.69 592.18,514.62 C591.73,514.56 590.57,513.71 589.61,512.75 C588.64,511.79 587.44,510.94 586.93,510.88 C586.42,510.81 585.53,510.69 584.96,510.62 C584.39,510.56 583.61,510.01 583.21,509.41 C582.21,507.89 573.00,502.64 573.00,503.59 C573.00,504.02 572.08,503.39 570.96,502.19 C569.84,500.98 568.49,499.94 567.96,499.88 C567.43,499.81 566.63,499.69 566.18,499.62 C565.73,499.56 564.60,498.74 563.67,497.82 C562.75,496.89 560.98,495.82 559.74,495.43 C558.51,495.05 557.28,494.41 557.00,494.03 C556.08,492.73 547.00,487.80 547.00,488.59 C547.00,489.02 546.08,488.39 544.96,487.19 C543.84,485.98 542.49,484.94 541.96,484.88 C541.43,484.81 540.53,484.69 539.96,484.62 C539.39,484.56 538.61,484.01 538.21,483.42 C537.82,482.83 535.04,481.03 532.03,479.42 C529.03,477.81 525.96,475.94 525.21,475.25 C524.47,474.56 523.44,473.94 522.93,473.88 C522.42,473.81 521.63,473.69 521.18,473.62 C520.73,473.56 519.57,472.71 518.61,471.75 C517.64,470.79 516.44,469.94 515.93,469.88 C515.42,469.81 514.53,469.69 513.96,469.62 C513.39,469.56 512.61,469.01 512.21,468.41 C511.21,466.89 502.00,461.64 502.00,462.59 C502.00,463.02 501.08,462.39 499.96,461.19 C498.84,459.98 497.49,458.94 496.96,458.88 C496.43,458.81 495.63,458.69 495.18,458.62 C494.73,458.56 493.57,457.71 492.61,456.75 C491.64,455.79 490.44,454.94 489.93,454.88 C489.42,454.81 488.63,454.69 488.18,454.62 C487.73,454.56 486.57,453.71 485.61,452.75 C484.64,451.79 483.21,451.00 482.43,451.00 C481.64,451.00 481.00,450.58 481.00,450.07 C481.00,449.28 477.85,447.71 475.93,447.55 C475.61,447.52 474.57,446.71 473.61,445.75 C472.64,444.79 471.44,443.94 470.93,443.88 C470.42,443.81 469.53,443.69 468.96,443.62 C468.39,443.56 467.61,443.03 467.21,442.45 C466.22,440.99 457.00,435.75 457.00,436.65 C457.00,437.05 456.08,436.39 454.96,435.19 C453.84,433.98 452.49,432.94 451.96,432.88 C451.43,432.81 450.63,432.69 450.18,432.62 C449.73,432.56 448.57,431.71 447.61,430.75 C446.64,429.79 445.44,428.94 444.93,428.88 C444.42,428.81 443.53,428.69 442.96,428.62 C442.39,428.56 441.61,428.01 441.21,427.41 C440.21,425.89 431.00,420.64 431.00,421.59 C431.00,422.02 430.08,421.39 428.96,420.19 C427.84,418.98 426.49,417.94 425.96,417.88 C425.43,417.81 424.63,417.69 424.18,417.62 C423.73,417.56 422.60,416.74 421.67,415.82 C420.75,414.89 418.98,413.82 417.74,413.43 C416.51,413.05 415.23,412.31 414.90,411.80 C414.57,411.29 413.62,410.77 412.79,410.65 C411.96,410.52 410.51,409.65 409.57,408.71 C408.63,407.77 406.77,406.73 405.43,406.39 C404.09,406.06 403.00,405.41 403.00,404.96 C403.00,404.26 399.73,402.70 397.93,402.55 C397.61,402.52 396.57,401.71 395.61,400.75 C394.64,399.79 393.44,398.94 392.93,398.88 C392.42,398.81 391.53,398.69 390.96,398.62 C390.39,398.56 389.61,398.01 389.21,397.41 C388.21,395.89 379.00,390.64 379.00,391.59 C379.00,392.02 378.08,391.39 376.96,390.19 C375.84,388.98 374.49,387.94 373.96,387.88 C373.43,387.81 372.53,387.69 371.96,387.62 C371.39,387.56 370.61,387.01 370.21,386.41 C369.21,384.89 360.00,379.64 360.00,380.59 C360.00,381.02 359.08,380.39 357.96,379.19 C356.84,377.98 355.49,376.94 354.96,376.88 C354.43,376.81 353.63,376.69 353.18,376.62 C352.73,376.56 351.60,375.74 350.67,374.82 C349.75,373.89 347.98,372.82 346.74,372.43 C345.51,372.05 344.27,371.41 344.00,371.03 C343.08,369.73 334.00,364.80 334.00,365.59 C334.00,366.02 333.08,365.39 331.96,364.19 C330.84,362.98 329.49,361.94 328.96,361.88 C328.43,361.81 327.63,361.69 327.18,361.62 C326.73,361.56 325.67,360.81 324.82,359.97 C323.98,359.12 321.10,357.32 318.42,355.97 C315.74,354.61 312.95,352.94 312.21,352.25 C311.47,351.56 309.77,350.73 308.43,350.39 C307.09,350.06 306.00,349.41 306.00,348.96 C306.00,348.21 302.62,346.67 300.71,346.55 C300.28,346.52 299.61,346.01 299.21,345.41 C298.21,343.89 289.00,338.64 289.00,339.59 C289.00,340.02 288.08,339.39 286.96,338.19 C285.84,336.98 284.49,335.94 283.96,335.88 C283.43,335.81 282.63,335.69 282.18,335.62 C281.73,335.56 280.57,334.71 279.61,333.75 C278.65,332.79 276.77,331.73 275.43,331.39 C274.09,331.06 273.00,330.48 273.00,330.11 C273.00,329.73 270.43,328.10 267.28,326.46 C264.14,324.83 260.96,322.94 260.21,322.25 C259.47,321.56 258.44,320.94 257.93,320.88 C257.42,320.81 256.53,320.69 255.96,320.62 C255.39,320.56 254.61,320.01 254.21,319.42 C253.82,318.83 251.04,317.03 248.03,315.42 C245.03,313.81 241.96,311.94 241.21,311.25 C240.47,310.56 239.44,309.94 238.93,309.88 C238.42,309.81 237.63,309.69 237.18,309.62 C236.73,309.56 235.60,308.74 234.67,307.82 C233.75,306.89 231.98,305.82 230.74,305.43 C229.51,305.05 228.27,304.43 228.00,304.07 C227.06,302.83 218.00,297.91 218.00,298.65 C218.00,299.05 217.08,298.39 215.96,297.19 C214.84,295.98 213.49,294.94 212.96,294.88 C212.43,294.81 211.63,294.69 211.18,294.62 C210.73,294.56 209.57,293.71 208.61,292.75 C207.64,291.79 206.44,290.94 205.93,290.88 C205.42,290.81 204.53,290.69 203.96,290.62 C203.39,290.56 202.61,290.01 202.21,289.41 C201.21,287.89 192.00,282.64 192.00,283.59 C192.00,284.02 191.08,283.39 189.96,282.19 C188.84,280.98 187.49,279.94 186.96,279.88 C186.43,279.81 185.53,279.69 184.96,279.62 C184.39,279.56 183.61,279.01 183.21,278.42 C182.82,277.83 180.04,276.03 177.03,274.42 C174.03,272.81 170.96,270.94 170.21,270.25 C169.47,269.56 168.44,268.94 167.93,268.88 C167.42,268.81 166.53,268.69 165.96,268.62 C165.39,268.56 164.61,268.00 164.21,267.40 C163.82,266.79 162.49,265.77 161.25,265.11 L 159.00 263.93 L 159.00 159.00 L 450.00 159.00 L 450.00 250.43 C450.00,307.42 450.37,342.84 450.98,344.43 L 451.95 347.00 L 767.00 347.00 L 767.00 499.56 L 764.75 501.51 C762.60,503.38 762.18,503.59 760.07,503.88 C759.56,503.94 758.36,504.79 757.39,505.75 C756.43,506.71 755.27,507.56 754.82,507.62 C754.37,507.69 753.57,507.81 753.04,507.88 C752.51,507.94 751.16,508.98 750.04,510.19 C748.92,511.39 748.00,512.02 748.00,511.59 C748.00,510.64 738.79,515.89 737.79,517.41 C737.39,518.01 736.61,518.56 736.04,518.62 C735.47,518.69 734.58,518.81 734.07,518.88 C733.56,518.94 732.36,519.79 731.39,520.75 C730.43,521.71 729.39,522.52 729.07,522.55 C727.15,522.71 724.00,524.28 724.00,525.07 C724.00,525.58 723.36,526.00 722.57,526.00 C721.79,526.00 720.53,526.62 719.77,527.37 C719.02,528.12 717.42,529.05 716.21,529.43 C715.00,529.82 713.25,530.89 712.33,531.82 C711.40,532.74 710.27,533.56 709.82,533.62 C709.37,533.69 708.57,533.81 708.04,533.88 C707.51,533.94 706.16,534.98 705.04,536.19 C703.92,537.39 703.00,538.02 703.00,537.59 C703.00,536.64 693.79,541.89 692.79,543.41 C692.39,544.01 691.61,544.56 691.04,544.62 C690.47,544.69 689.58,544.81 689.07,544.88 C688.56,544.94 687.36,545.79 686.39,546.75 C685.43,547.71 684.27,548.56 683.82,548.62 C683.37,548.69 682.57,548.81 682.04,548.88 C681.51,548.94 680.16,549.98 679.04,551.19 C677.92,552.39 677.00,553.05 677.00,552.65 C677.00,552.24 675.05,553.06 672.66,554.46 ZM 756.60 322.75 C756.03,323.74 726.74,324.00 615.44,324.00 L 475.00 324.00 L 475.00 242.46 C475.00,161.24 475.01,160.93 477.00,162.00 C478.10,162.59 479.00,162.74 479.00,162.35 C479.00,161.95 479.92,162.61 481.04,163.81 C482.16,165.02 483.51,166.06 484.04,166.12 C484.57,166.19 485.37,166.31 485.82,166.38 C486.27,166.44 487.43,167.29 488.39,168.25 C489.36,169.21 490.56,170.06 491.07,170.12 C491.58,170.19 492.47,170.31 493.04,170.38 C493.61,170.44 494.39,170.99 494.79,171.59 C495.79,173.11 505.00,178.36 505.00,177.41 C505.00,176.98 505.92,177.61 507.04,178.81 C508.16,180.02 509.51,181.06 510.04,181.12 C510.57,181.19 511.47,181.31 512.04,181.38 C512.61,181.44 513.39,181.99 513.79,182.59 C514.79,184.11 524.00,189.36 524.00,188.41 C524.00,187.98 524.92,188.61 526.04,189.81 C527.16,191.02 528.51,192.06 529.04,192.12 C529.57,192.19 530.37,192.31 530.82,192.38 C531.27,192.44 532.43,193.29 533.39,194.25 C534.36,195.21 535.56,196.06 536.07,196.12 C536.58,196.19 537.47,196.31 538.04,196.38 C538.61,196.44 539.39,196.99 539.79,197.59 C540.79,199.11 550.00,204.36 550.00,203.41 C550.00,202.98 550.92,203.61 552.04,204.81 C553.16,206.02 554.51,207.06 555.04,207.12 C555.57,207.19 556.37,207.31 556.82,207.38 C557.27,207.44 558.33,208.19 559.18,209.03 C560.02,209.88 562.90,211.68 565.58,213.03 C568.26,214.39 571.05,216.06 571.80,216.75 C572.54,217.44 573.56,218.06 574.07,218.12 C574.58,218.19 575.37,218.31 575.82,218.38 C576.27,218.44 577.43,219.29 578.39,220.25 C579.36,221.21 580.56,222.06 581.07,222.12 C581.58,222.19 582.47,222.31 583.04,222.38 C583.61,222.44 584.39,222.99 584.79,223.59 C585.79,225.11 595.00,230.36 595.00,229.41 C595.00,228.98 595.92,229.61 597.04,230.81 C598.16,232.02 599.51,233.06 600.04,233.12 C600.57,233.19 601.37,233.31 601.82,233.38 C602.27,233.44 603.40,234.26 604.33,235.18 C605.25,236.11 607.00,237.18 608.21,237.57 C609.42,237.95 611.02,238.88 611.77,239.63 C612.53,240.38 613.79,241.00 614.57,241.00 C615.36,241.00 616.00,241.42 616.00,241.94 C616.00,242.45 617.58,243.44 619.50,244.14 C621.42,244.83 623.00,245.73 623.00,246.13 C623.00,246.81 626.48,248.34 628.29,248.45 C628.72,248.48 629.39,248.99 629.79,249.59 C630.79,251.11 640.00,256.36 640.00,255.41 C640.00,254.98 640.92,255.61 642.04,256.81 C643.16,258.02 644.51,259.06 645.04,259.12 C645.57,259.19 646.37,259.31 646.82,259.38 C647.27,259.44 648.43,260.29 649.39,261.25 C650.36,262.21 651.56,263.06 652.07,263.12 C652.58,263.19 653.37,263.31 653.82,263.38 C654.27,263.44 655.33,264.19 656.18,265.03 C657.02,265.88 659.90,267.68 662.58,269.03 C665.26,270.39 668.05,272.06 668.80,272.75 C669.54,273.44 670.56,274.06 671.07,274.12 C671.58,274.19 672.37,274.31 672.82,274.38 C673.27,274.44 674.33,275.19 675.18,276.03 C676.02,276.88 678.90,278.68 681.58,280.03 C684.26,281.39 687.05,283.06 687.80,283.75 C688.54,284.44 689.56,285.06 690.07,285.12 C690.58,285.19 691.37,285.31 691.82,285.38 C692.27,285.44 693.43,286.29 694.39,287.25 C695.36,288.21 696.56,289.06 697.07,289.12 C697.58,289.19 698.47,289.31 699.04,289.38 C699.61,289.44 700.39,289.99 700.79,290.59 C701.79,292.11 711.00,297.36 711.00,296.41 C711.00,295.98 711.92,296.61 713.04,297.81 C714.16,299.02 715.51,300.06 716.04,300.12 C716.57,300.19 717.47,300.31 718.04,300.38 C718.61,300.44 719.39,300.99 719.79,301.58 C720.18,302.17 722.96,303.97 725.97,305.58 C728.97,307.19 732.04,309.06 732.79,309.75 C733.53,310.44 734.56,311.06 735.07,311.12 C735.58,311.19 736.37,311.31 736.82,311.38 C737.27,311.44 738.40,312.26 739.33,313.18 C740.25,314.11 742.02,315.18 743.26,315.57 C744.49,315.95 745.72,316.57 746.00,316.93 C747.22,318.55 755.81,322.86 756.53,322.21 C756.96,321.82 757.00,322.06 756.60,322.75 ZM 767.00 942.11 L 767.00 973.00 L 713.00 973.00 C663.80,973.00 653.75,972.53 661.43,970.61 C662.77,970.27 664.65,969.21 665.61,968.25 C666.57,967.29 667.73,966.44 668.18,966.38 C668.63,966.31 669.43,966.19 669.96,966.12 C670.49,966.06 671.84,965.02 672.96,963.81 C674.08,962.61 675.00,961.98 675.00,962.41 C675.00,963.36 684.21,958.11 685.21,956.59 C685.61,955.99 686.39,955.44 686.96,955.38 C687.53,955.31 688.43,955.19 688.96,955.12 C689.49,955.06 690.84,954.02 691.96,952.81 C693.08,951.61 694.00,950.98 694.00,951.41 C694.00,952.36 703.21,947.11 704.21,945.59 C704.61,944.99 705.39,944.44 705.96,944.38 C706.53,944.31 707.42,944.19 707.93,944.12 C708.44,944.06 709.64,943.21 710.61,942.25 C711.57,941.29 712.61,940.48 712.93,940.45 C714.73,940.30 718.00,938.74 718.00,938.04 C718.00,937.59 719.09,936.94 720.43,936.61 C721.77,936.27 723.63,935.23 724.57,934.29 C725.51,933.35 726.96,932.48 727.79,932.35 C728.62,932.23 729.67,931.54 730.11,930.82 C730.56,930.09 731.39,929.44 731.96,929.38 C732.53,929.31 733.42,929.19 733.93,929.12 C734.44,929.06 735.64,928.21 736.61,927.25 C737.57,926.29 738.73,925.44 739.18,925.38 C739.63,925.31 740.43,925.19 740.96,925.12 C741.49,925.06 742.84,924.02 743.96,922.81 C745.08,921.61 746.00,920.95 746.00,921.35 C746.00,922.25 755.22,917.01 756.21,915.55 C756.61,914.97 757.28,914.48 757.71,914.45 C759.92,914.31 762.88,912.76 763.37,911.48 C763.68,910.67 764.60,910.29 765.46,910.62 C766.80,911.14 767.00,915.23 767.00,942.11 ZM 163.83 370.34 C163.46,370.90 162.23,371.49 161.08,371.67 C159.00,371.99 159.00,371.96 159.00,331.50 C159.00,291.04 159.00,291.01 161.08,291.33 C162.23,291.51 163.46,292.10 163.83,292.66 C164.81,294.14 174.00,299.33 174.00,298.41 C174.00,297.98 174.92,298.61 176.04,299.81 C177.16,301.02 178.51,302.06 179.04,302.12 C179.57,302.19 180.37,302.31 180.82,302.38 C181.27,302.44 182.43,303.29 183.39,304.25 C184.36,305.21 185.56,306.06 186.07,306.12 C186.58,306.19 187.47,306.31 188.04,306.38 C188.61,306.44 189.39,306.99 189.79,307.59 C190.79,309.11 200.00,314.36 200.00,313.41 C200.00,312.98 200.92,313.61 202.04,314.81 C203.16,316.02 204.51,317.06 205.04,317.12 C205.57,317.19 206.37,317.31 206.82,317.38 C207.27,317.44 208.40,318.26 209.33,319.18 C210.25,320.11 212.00,321.18 213.21,321.57 C214.42,321.95 216.03,322.88 216.78,323.64 C217.54,324.40 218.58,324.76 219.09,324.45 C219.60,324.13 220.27,324.54 220.58,325.35 C220.89,326.15 222.57,327.40 224.32,328.10 C226.07,328.81 227.81,329.84 228.18,330.39 C228.93,331.49 227.37,335.05 226.22,334.87 C224.27,334.58 222.90,335.19 221.04,337.19 C219.92,338.39 219.00,339.02 219.00,338.59 C219.00,337.64 209.79,342.89 208.79,344.41 C208.39,345.01 207.72,345.52 207.29,345.55 C205.38,345.67 202.00,347.21 202.00,347.96 C202.00,348.41 200.91,349.06 199.57,349.39 C198.23,349.73 196.37,350.77 195.43,351.71 C194.49,352.65 193.04,353.52 192.21,353.65 C191.38,353.77 190.43,354.29 190.10,354.80 C189.77,355.31 188.49,356.05 187.26,356.43 C186.02,356.82 184.25,357.89 183.33,358.82 C182.40,359.74 181.27,360.56 180.82,360.62 C180.37,360.69 179.57,360.81 179.04,360.88 C178.51,360.94 177.16,361.98 176.04,363.19 C174.92,364.39 174.00,365.02 174.00,364.59 C174.00,363.67 164.81,368.86 163.83,370.34 Z"/>
<path class="icon-near-dark" d="M 691.04 931.25 L 610.09 978.00 L 155.00 978.00 L 155.25 687.87 L 155.50 397.74 L 203.50 369.92 C229.90,354.61 252.35,342.07 253.38,342.05 C254.42,342.02 371.53,409.14 513.63,491.20 L 772.00 640.41 L 772.00 884.50 ZM 617.04 969.88 C617.57,969.81 618.47,969.69 619.04,969.62 C619.61,969.56 620.39,969.03 620.79,968.45 C621.78,966.99 631.00,961.75 631.00,962.65 C631.00,963.05 631.92,962.39 633.04,961.19 C634.16,959.98 635.51,958.94 636.04,958.88 C636.57,958.81 637.37,958.69 637.82,958.62 C638.27,958.56 639.43,957.71 640.39,956.75 C641.36,955.79 642.56,954.94 643.07,954.88 C643.58,954.81 644.47,954.69 645.04,954.62 C645.61,954.56 646.39,954.01 646.79,953.41 C647.79,951.89 657.00,946.64 657.00,947.59 C657.00,948.02 657.92,947.39 659.04,946.19 C660.16,944.98 661.51,943.94 662.04,943.88 C662.57,943.81 663.47,943.69 664.04,943.62 C664.61,943.56 665.39,943.03 665.79,942.45 C666.78,940.99 676.00,935.75 676.00,936.65 C676.00,937.05 676.92,936.39 678.04,935.19 C679.16,933.98 680.51,932.94 681.04,932.88 C681.57,932.81 682.37,932.69 682.82,932.62 C683.27,932.56 684.43,931.71 685.39,930.75 C686.36,929.79 687.56,928.94 688.07,928.88 C688.58,928.81 689.47,928.69 690.04,928.62 C690.61,928.56 691.39,928.01 691.79,927.41 C692.79,925.89 702.00,920.64 702.00,921.59 C702.00,922.02 702.92,921.39 704.04,920.19 C705.16,918.98 706.51,917.94 707.04,917.88 C707.57,917.81 708.37,917.69 708.82,917.62 C709.27,917.56 710.40,916.74 711.33,915.82 C712.25,914.89 714.02,913.82 715.26,913.43 C716.49,913.05 717.72,912.41 718.00,912.03 C718.92,910.73 728.00,905.80 728.00,906.59 C728.00,907.02 728.92,906.39 730.04,905.19 C731.16,903.98 732.51,902.94 733.04,902.88 C733.57,902.81 734.37,902.69 734.82,902.62 C735.27,902.56 736.40,901.74 737.33,900.82 C738.25,899.89 740.00,898.82 741.21,898.43 C742.42,898.05 744.02,897.12 744.77,896.37 C745.53,895.62 746.79,895.00 747.57,895.00 C748.36,895.00 749.00,894.58 749.00,894.07 C749.00,893.28 752.15,891.71 754.07,891.55 C754.39,891.52 755.43,890.71 756.39,889.75 C757.36,888.79 758.56,887.94 759.07,887.88 C759.58,887.81 760.34,887.69 760.75,887.61 C761.16,887.53 762.74,886.38 764.25,885.06 L 767.00 882.64 L 767.00 642.36 L 764.25 639.96 C762.74,638.64 760.87,637.46 760.10,637.34 C759.33,637.23 758.33,636.54 757.89,635.82 C757.44,635.09 756.61,634.44 756.04,634.38 C755.47,634.31 754.58,634.19 754.07,634.12 C753.56,634.06 752.36,633.21 751.39,632.25 C750.43,631.29 749.27,630.44 748.82,630.38 C748.37,630.31 747.57,630.19 747.04,630.12 C746.51,630.06 745.16,629.02 744.04,627.81 C742.92,626.61 742.00,625.98 742.00,626.41 C742.00,627.36 732.79,622.11 731.79,620.59 C731.39,619.99 730.61,619.44 730.04,619.38 C729.47,619.31 728.58,619.19 728.07,619.12 C727.56,619.06 726.36,618.21 725.39,617.25 C724.43,616.29 723.27,615.44 722.82,615.38 C722.37,615.31 721.58,615.19 721.07,615.12 C720.56,615.06 719.54,614.44 718.80,613.75 C718.05,613.06 715.26,611.39 712.58,610.03 C709.90,608.68 707.02,606.88 706.18,606.03 C705.33,605.19 704.27,604.44 703.82,604.38 C703.37,604.31 702.57,604.19 702.04,604.12 C701.51,604.06 700.16,603.02 699.04,601.81 C697.92,600.61 697.00,599.98 697.00,600.41 C697.00,601.36 687.79,596.11 686.79,594.59 C686.39,593.99 685.61,593.44 685.04,593.38 C684.47,593.31 683.58,593.19 683.07,593.12 C682.56,593.06 681.36,592.21 680.39,591.25 C679.43,590.29 678.27,589.44 677.82,589.38 C677.37,589.31 676.58,589.19 676.07,589.12 C675.56,589.06 674.54,588.44 673.80,587.75 C673.05,587.06 670.26,585.39 667.58,584.03 C664.90,582.68 662.02,580.88 661.18,580.03 C660.33,579.19 659.27,578.44 658.82,578.38 C658.37,578.31 657.58,578.19 657.07,578.12 C656.56,578.06 655.37,577.23 654.43,576.29 C653.49,575.35 652.15,574.49 651.46,574.39 C649.74,574.14 635.68,565.82 634.79,564.53 C634.39,563.96 633.72,563.48 633.29,563.45 C631.26,563.32 628.00,561.77 628.00,560.93 C628.00,560.42 627.48,560.00 626.84,560.00 C625.37,560.00 609.74,550.95 608.79,549.55 C608.39,548.97 607.61,548.44 607.04,548.38 C606.47,548.31 605.58,548.19 605.07,548.12 C604.56,548.06 603.54,547.44 602.80,546.75 C602.05,546.06 599.26,544.39 596.58,543.03 C593.90,541.68 591.02,539.88 590.18,539.03 C589.33,538.19 588.27,537.44 587.82,537.38 C587.37,537.31 586.58,537.19 586.07,537.12 C585.56,537.06 584.36,536.21 583.39,535.25 C582.43,534.29 581.27,533.44 580.82,533.38 C580.37,533.31 579.58,533.19 579.07,533.12 C578.56,533.06 577.37,532.23 576.43,531.29 C575.49,530.35 574.04,529.48 573.21,529.35 C572.38,529.23 571.43,528.71 571.10,528.20 C570.77,527.69 569.49,526.95 568.26,526.57 C567.02,526.18 565.25,525.11 564.33,524.18 C563.40,523.26 562.27,522.44 561.82,522.38 C561.37,522.31 560.58,522.19 560.07,522.12 C559.56,522.06 558.37,521.23 557.43,520.29 C556.49,519.35 555.15,518.49 554.46,518.39 C552.74,518.14 538.68,509.82 537.79,508.53 C537.39,507.96 536.61,507.44 536.04,507.38 C535.47,507.31 534.57,507.19 534.04,507.12 C533.51,507.06 532.16,506.02 531.04,504.81 C529.92,503.61 529.00,502.98 529.00,503.41 C529.00,504.36 519.79,499.11 518.79,497.59 C518.39,496.99 517.61,496.44 517.04,496.38 C516.47,496.31 515.58,496.19 515.07,496.12 C514.56,496.06 513.36,495.21 512.39,494.25 C511.43,493.29 510.27,492.44 509.82,492.38 C509.37,492.31 508.58,492.19 508.07,492.12 C507.56,492.06 506.54,491.44 505.80,490.75 C505.05,490.06 502.26,488.39 499.58,487.03 C496.90,485.68 494.02,483.88 493.18,483.03 C492.33,482.19 491.27,481.44 490.82,481.38 C490.37,481.31 489.57,481.19 489.04,481.12 C488.51,481.06 487.16,480.02 486.04,478.81 C484.92,477.61 484.00,476.98 484.00,477.41 C484.00,478.36 474.79,473.11 473.79,471.59 C473.39,470.99 472.61,470.44 472.04,470.38 C471.47,470.31 470.58,470.19 470.07,470.12 C469.56,470.06 468.36,469.21 467.39,468.25 C466.43,467.29 465.27,466.44 464.82,466.38 C464.37,466.31 463.58,466.19 463.07,466.12 C462.56,466.06 461.54,465.44 460.80,464.75 C460.05,464.06 457.26,462.39 454.58,461.03 C451.90,459.68 449.02,457.88 448.18,457.03 C447.33,456.19 446.39,455.48 446.07,455.45 C444.27,455.30 441.00,453.74 441.00,453.04 C441.00,452.59 439.91,451.94 438.57,451.61 C437.23,451.27 435.37,450.23 434.43,449.29 C433.49,448.35 432.04,447.48 431.21,447.35 C430.38,447.23 429.43,446.71 429.10,446.20 C428.77,445.69 427.49,444.95 426.26,444.57 C425.02,444.18 423.25,443.11 422.33,442.18 C421.40,441.26 420.27,440.44 419.82,440.38 C419.37,440.31 418.58,440.19 418.07,440.12 C417.56,440.06 416.53,439.44 415.79,438.75 C415.04,438.06 411.86,436.17 408.72,434.54 C405.57,432.90 403.00,431.27 403.00,430.89 C403.00,430.52 401.91,429.94 400.57,429.61 C399.23,429.27 397.35,428.21 396.39,427.25 C395.43,426.29 394.27,425.44 393.82,425.38 C393.37,425.31 392.57,425.19 392.04,425.12 C391.51,425.06 390.16,424.02 389.04,422.81 C387.92,421.61 387.00,420.98 387.00,421.41 C387.00,422.36 377.79,417.11 376.79,415.59 C376.39,414.99 375.61,414.44 375.04,414.38 C374.47,414.31 373.58,414.19 373.07,414.12 C372.56,414.06 371.36,413.21 370.39,412.25 C369.43,411.29 368.27,410.44 367.82,410.38 C367.37,410.31 366.58,410.19 366.07,410.12 C365.56,410.06 364.53,409.44 363.79,408.75 C363.04,408.06 359.97,406.19 356.97,404.58 C353.96,402.97 351.18,401.17 350.79,400.58 C350.39,399.99 349.61,399.44 349.04,399.38 C348.47,399.31 347.57,399.19 347.04,399.12 C346.51,399.06 345.16,398.02 344.04,396.81 C342.92,395.61 342.00,394.98 342.00,395.41 C342.00,396.36 332.79,391.11 331.79,389.59 C331.39,388.99 330.61,388.44 330.04,388.38 C329.47,388.31 328.58,388.19 328.07,388.12 C327.56,388.06 326.36,387.21 325.39,386.25 C324.43,385.29 323.27,384.44 322.82,384.38 C322.37,384.31 321.58,384.19 321.07,384.12 C320.56,384.06 319.54,383.44 318.80,382.75 C318.05,382.06 315.26,380.39 312.58,379.03 C309.90,377.68 307.02,375.88 306.18,375.03 C305.33,374.19 304.27,373.44 303.82,373.38 C303.37,373.31 302.58,373.19 302.07,373.12 C301.56,373.06 300.36,372.21 299.39,371.25 C298.43,370.29 297.39,369.48 297.07,369.45 C295.15,369.29 292.00,367.72 292.00,366.93 C292.00,366.42 291.36,366.00 290.57,366.00 C289.79,366.00 288.36,365.21 287.39,364.25 C286.43,363.29 285.27,362.44 284.82,362.38 C284.37,362.31 283.58,362.19 283.07,362.12 C282.56,362.06 281.36,361.21 280.39,360.25 C279.43,359.29 278.27,358.44 277.82,358.38 C277.37,358.31 276.58,358.19 276.07,358.12 C275.56,358.06 274.37,357.23 273.43,356.29 C272.49,355.35 271.07,354.48 270.27,354.36 C269.48,354.25 267.94,353.35 266.86,352.38 C265.79,351.40 264.21,350.50 263.37,350.38 C262.52,350.25 261.21,349.33 260.45,348.33 C259.69,347.32 259.05,346.85 259.03,347.28 C259.01,347.70 257.64,347.35 255.97,346.48 C253.08,344.99 252.70,345.05 247.75,347.71 C244.90,349.24 241.96,351.06 241.21,351.75 C240.47,352.44 239.44,353.06 238.93,353.12 C238.42,353.19 237.63,353.31 237.18,353.38 C236.73,353.44 235.57,354.29 234.61,355.25 C233.64,356.21 232.44,357.06 231.93,357.12 C231.42,357.19 230.53,357.31 229.96,357.38 C229.39,357.44 228.61,357.97 228.21,358.55 C227.22,360.01 218.00,365.25 218.00,364.35 C218.00,363.95 217.08,364.61 215.96,365.81 C214.84,367.02 213.49,368.06 212.96,368.12 C212.43,368.19 211.63,368.31 211.18,368.38 C210.73,368.44 209.57,369.29 208.61,370.25 C207.64,371.21 206.44,372.06 205.93,372.12 C205.42,372.19 204.53,372.31 203.96,372.38 C203.39,372.44 202.61,372.99 202.21,373.59 C201.21,375.11 192.00,380.36 192.00,379.41 C192.00,378.98 191.08,379.61 189.96,380.81 C188.84,382.02 187.49,383.06 186.96,383.12 C186.43,383.19 185.63,383.31 185.18,383.38 C184.73,383.44 183.57,384.29 182.61,385.25 C181.64,386.21 180.44,387.06 179.93,387.12 C179.42,387.19 178.63,387.31 178.18,387.38 C177.73,387.44 176.57,388.29 175.61,389.25 C174.64,390.21 173.21,391.00 172.43,391.00 C171.64,391.00 171.00,391.42 171.00,391.93 C171.00,392.77 167.74,394.32 165.71,394.45 C165.28,394.48 164.61,395.00 164.21,395.60 C163.82,396.21 162.49,397.23 161.25,397.89 L 159.00 399.07 L 159.00 973.00 L 385.75 973.25 C600.55,973.49 612.59,973.41 614.29,971.75 C615.27,970.79 616.51,969.94 617.04,969.88 ZM 720.00 531.14 C691.67,547.53 668.28,560.94 668.00,560.96 C667.72,560.97 552.30,494.45 411.50,413.14 L 155.50 265.29 L 154.98 155.00 L 454.00 155.00 L 454.00 345.00 L 772.01 345.00 L 771.50 501.35 ZM 672.66 554.46 C675.05,553.06 677.00,552.24 677.00,552.65 C677.00,553.05 677.92,552.39 679.04,551.19 C680.16,549.98 681.51,548.94 682.04,548.88 C682.57,548.81 683.37,548.69 683.82,548.62 C684.27,548.56 685.43,547.71 686.39,546.75 C687.36,545.79 688.56,544.94 689.07,544.88 C689.58,544.81 690.47,544.69 691.04,544.62 C691.61,544.56 692.39,544.01 692.79,543.41 C693.79,541.89 703.00,536.64 703.00,537.59 C703.00,538.02 703.92,537.39 705.04,536.19 C706.16,534.98 707.51,533.94 708.04,533.88 C708.57,533.81 709.37,533.69 709.82,533.62 C710.27,533.56 711.40,532.74 712.33,531.82 C713.25,530.89 715.00,529.82 716.21,529.43 C717.42,529.05 719.02,528.12 719.77,527.37 C720.53,526.62 721.79,526.00 722.57,526.00 C723.36,526.00 724.00,525.58 724.00,525.07 C724.00,524.28 727.15,522.71 729.07,522.55 C729.39,522.52 730.43,521.71 731.39,520.75 C732.36,519.79 733.56,518.94 734.07,518.88 C734.58,518.81 735.47,518.69 736.04,518.62 C736.61,518.56 737.39,518.01 737.79,517.41 C738.79,515.89 748.00,510.64 748.00,511.59 C748.00,512.02 748.92,511.39 750.04,510.19 C751.16,508.98 752.51,507.94 753.04,507.88 C753.57,507.81 754.37,507.69 754.82,507.62 C755.27,507.56 756.43,506.71 757.39,505.75 C758.36,504.79 759.56,503.94 760.07,503.88 C762.18,503.59 762.60,503.38 764.75,501.51 L 767.00 499.56 L 767.00 347.00 L 451.95 347.00 L 450.98 344.43 C450.37,342.84 450.00,307.42 450.00,250.43 L 450.00 159.00 L 159.00 159.00 L 159.00 263.93 L 161.25 265.11 C162.49,265.77 163.82,266.79 164.21,267.40 C164.61,268.00 165.39,268.56 165.96,268.62 C166.53,268.69 167.42,268.81 167.93,268.88 C168.44,268.94 169.47,269.56 170.21,270.25 C170.96,270.94 174.03,272.81 177.03,274.42 C180.04,276.03 182.82,277.83 183.21,278.42 C183.61,279.01 184.39,279.56 184.96,279.62 C185.53,279.69 186.43,279.81 186.96,279.88 C187.49,279.94 188.84,280.98 189.96,282.19 C191.08,283.39 192.00,284.02 192.00,283.59 C192.00,282.64 201.21,287.89 202.21,289.41 C202.61,290.01 203.39,290.56 203.96,290.62 C204.53,290.69 205.42,290.81 205.93,290.88 C206.44,290.94 207.64,291.79 208.61,292.75 C209.57,293.71 210.73,294.56 211.18,294.62 C211.63,294.69 212.43,294.81 212.96,294.88 C213.49,294.94 214.84,295.98 215.96,297.19 C217.08,298.39 218.00,299.05 218.00,298.65 C218.00,297.91 227.06,302.83 228.00,304.07 C228.27,304.43 229.51,305.05 230.74,305.43 C231.98,305.82 233.75,306.89 234.67,307.82 C235.60,308.74 236.73,309.56 237.18,309.62 C237.63,309.69 238.42,309.81 238.93,309.88 C239.44,309.94 240.47,310.56 241.21,311.25 C241.96,311.94 245.03,313.81 248.03,315.42 C251.04,317.03 253.82,318.83 254.21,319.42 C254.61,320.01 255.39,320.56 255.96,320.62 C256.53,320.69 257.42,320.81 257.93,320.88 C258.44,320.94 259.47,321.56 260.21,322.25 C260.96,322.94 264.14,324.83 267.28,326.46 C270.43,328.10 273.00,329.73 273.00,330.11 C273.00,330.48 274.09,331.06 275.43,331.39 C276.77,331.73 278.65,332.79 279.61,333.75 C280.57,334.71 281.73,335.56 282.18,335.62 C282.63,335.69 283.43,335.81 283.96,335.88 C284.49,335.94 285.84,336.98 286.96,338.19 C288.08,339.39 289.00,340.02 289.00,339.59 C289.00,338.64 298.21,343.89 299.21,345.41 C299.61,346.01 300.28,346.52 300.71,346.55 C302.62,346.67 306.00,348.21 306.00,348.96 C306.00,349.41 307.09,350.06 308.43,350.39 C309.77,350.73 311.47,351.56 312.21,352.25 C312.95,352.94 315.74,354.61 318.42,355.97 C321.10,357.32 323.98,359.12 324.82,359.97 C325.67,360.81 326.73,361.56 327.18,361.62 C327.63,361.69 328.43,361.81 328.96,361.88 C329.49,361.94 330.84,362.98 331.96,364.19 C333.08,365.39 334.00,366.02 334.00,365.59 C334.00,364.80 343.08,369.73 344.00,371.03 C344.27,371.41 345.51,372.05 346.74,372.43 C347.98,372.82 349.75,373.89 350.67,374.82 C351.60,375.74 352.73,376.56 353.18,376.62 C353.63,376.69 354.43,376.81 354.96,376.88 C355.49,376.94 356.84,377.98 357.96,379.19 C359.08,380.39 360.00,381.02 360.00,380.59 C360.00,379.64 369.21,384.89 370.21,386.41 C370.61,387.01 371.39,387.56 371.96,387.62 C372.53,387.69 373.43,387.81 373.96,387.88 C374.49,387.94 375.84,388.98 376.96,390.19 C378.08,391.39 379.00,392.02 379.00,391.59 C379.00,390.64 388.21,395.89 389.21,397.41 C389.61,398.01 390.39,398.56 390.96,398.62 C391.53,398.69 392.42,398.81 392.93,398.88 C393.44,398.94 394.64,399.79 395.61,400.75 C396.57,401.71 397.61,402.52 397.93,402.55 C399.73,402.70 403.00,404.26 403.00,404.96 C403.00,405.41 404.09,406.06 405.43,406.39 C406.77,406.73 408.63,407.77 409.57,408.71 C410.51,409.65 411.96,410.52 412.79,410.65 C413.62,410.77 414.57,411.29 414.90,411.80 C415.23,412.31 416.51,413.05 417.74,413.43 C418.98,413.82 420.75,414.89 421.67,415.82 C422.60,416.74 423.73,417.56 424.18,417.62 C424.63,417.69 425.43,417.81 425.96,417.88 C426.49,417.94 427.84,418.98 428.96,420.19 C430.08,421.39 431.00,422.02 431.00,421.59 C431.00,420.64 440.21,425.89 441.21,427.41 C441.61,428.01 442.39,428.56 442.96,428.62 C443.53,428.69 444.42,428.81 444.93,428.88 C445.44,428.94 446.64,429.79 447.61,430.75 C448.57,431.71 449.73,432.56 450.18,432.62 C450.63,432.69 451.43,432.81 451.96,432.88 C452.49,432.94 453.84,433.98 454.96,435.19 C456.08,436.39 457.00,437.05 457.00,436.65 C457.00,435.75 466.22,440.99 467.21,442.45 C467.61,443.03 468.39,443.56 468.96,443.62 C469.53,443.69 470.42,443.81 470.93,443.88 C471.44,443.94 472.64,444.79 473.61,445.75 C474.57,446.71 475.61,447.52 475.93,447.55 C477.85,447.71 481.00,449.28 481.00,450.07 C481.00,450.58 481.64,451.00 482.43,451.00 C483.21,451.00 484.64,451.79 485.61,452.75 C486.57,453.71 487.73,454.56 488.18,454.62 C488.63,454.69 489.42,454.81 489.93,454.88 C490.44,454.94 491.64,455.79 492.61,456.75 C493.57,457.71 494.73,458.56 495.18,458.62 C495.63,458.69 496.43,458.81 496.96,458.88 C497.49,458.94 498.84,459.98 499.96,461.19 C501.08,462.39 502.00,463.02 502.00,462.59 C502.00,461.64 511.21,466.89 512.21,468.41 C512.61,469.01 513.39,469.56 513.96,469.62 C514.53,469.69 515.42,469.81 515.93,469.88 C516.44,469.94 517.64,470.79 518.61,471.75 C519.57,472.71 520.73,473.56 521.18,473.62 C521.63,473.69 522.42,473.81 522.93,473.88 C523.44,473.94 524.47,474.56 525.21,475.25 C525.96,475.94 529.03,477.81 532.03,479.42 C535.04,481.03 537.82,482.83 538.21,483.42 C538.61,484.01 539.39,484.56 539.96,484.62 C540.53,484.69 541.43,484.81 541.96,484.88 C542.49,484.94 543.84,485.98 544.96,487.19 C546.08,488.39 547.00,489.02 547.00,488.59 C547.00,487.80 556.08,492.73 557.00,494.03 C557.28,494.41 558.51,495.05 559.74,495.43 C560.98,495.82 562.75,496.89 563.67,497.82 C564.60,498.74 565.73,499.56 566.18,499.62 C566.63,499.69 567.43,499.81 567.96,499.88 C568.49,499.94 569.84,500.98 570.96,502.19 C572.08,503.39 573.00,504.02 573.00,503.59 C573.00,502.64 582.21,507.89 583.21,509.41 C583.61,510.01 584.39,510.56 584.96,510.62 C585.53,510.69 586.42,510.81 586.93,510.88 C587.44,510.94 588.64,511.79 589.61,512.75 C590.57,513.71 591.73,514.56 592.18,514.62 C592.63,514.69 593.42,514.81 593.93,514.88 C594.44,514.94 595.63,515.77 596.57,516.71 C597.51,517.65 598.96,518.52 599.79,518.65 C600.62,518.77 601.67,519.46 602.11,520.18 C602.56,520.91 603.39,521.56 603.96,521.62 C604.53,521.69 605.42,521.81 605.93,521.88 C606.44,521.94 607.64,522.79 608.61,523.75 C609.57,524.71 610.73,525.56 611.18,525.62 C611.63,525.69 612.43,525.81 612.96,525.88 C613.49,525.94 614.84,526.98 615.96,528.19 C617.08,529.39 618.00,530.02 618.00,529.59 C618.00,528.80 627.08,533.73 628.00,535.03 C628.28,535.41 629.51,536.05 630.74,536.43 C631.98,536.82 633.75,537.89 634.67,538.82 C635.60,539.74 636.73,540.56 637.18,540.62 C637.63,540.69 638.43,540.81 638.96,540.88 C639.49,540.94 640.84,541.98 641.96,543.19 C643.08,544.39 644.00,545.05 644.00,544.65 C644.00,543.75 653.22,548.99 654.21,550.45 C654.61,551.03 655.39,551.56 655.96,551.62 C656.53,551.69 657.42,551.81 657.93,551.88 C658.44,551.94 659.63,552.77 660.57,553.71 C661.51,554.65 662.93,555.52 663.73,555.64 C664.53,555.75 665.44,556.11 665.76,556.42 C666.79,557.46 668.26,557.04 672.66,554.46 ZM 770.32 328.25 C769.78,329.18 472.59,329.26 471.67,328.33 C470.60,327.27 470.87,154.79 471.93,155.17 C475.50,156.44 770.66,327.66 770.32,328.25 ZM 756.60 322.75 C757.00,322.06 756.96,321.82 756.53,322.21 C755.81,322.86 747.22,318.55 746.00,316.93 C745.72,316.57 744.49,315.95 743.26,315.57 C742.02,315.18 740.25,314.11 739.33,313.18 C738.40,312.26 737.27,311.44 736.82,311.38 C736.37,311.31 735.58,311.19 735.07,311.12 C734.56,311.06 733.53,310.44 732.79,309.75 C732.04,309.06 728.97,307.19 725.97,305.58 C722.96,303.97 720.18,302.17 719.79,301.58 C719.39,300.99 718.61,300.44 718.04,300.38 C717.47,300.31 716.57,300.19 716.04,300.12 C715.51,300.06 714.16,299.02 713.04,297.81 C711.92,296.61 711.00,295.98 711.00,296.41 C711.00,297.36 701.79,292.11 700.79,290.59 C700.39,289.99 699.61,289.44 699.04,289.38 C698.47,289.31 697.58,289.19 697.07,289.12 C696.56,289.06 695.36,288.21 694.39,287.25 C693.43,286.29 692.27,285.44 691.82,285.38 C691.37,285.31 690.58,285.19 690.07,285.12 C689.56,285.06 688.54,284.44 687.80,283.75 C687.05,283.06 684.26,281.39 681.58,280.03 C678.90,278.68 676.02,276.88 675.18,276.03 C674.33,275.19 673.27,274.44 672.82,274.38 C672.37,274.31 671.58,274.19 671.07,274.12 C670.56,274.06 669.54,273.44 668.80,272.75 C668.05,272.06 665.26,270.39 662.58,269.03 C659.90,267.68 657.02,265.88 656.18,265.03 C655.33,264.19 654.27,263.44 653.82,263.38 C653.37,263.31 652.58,263.19 652.07,263.12 C651.56,263.06 650.36,262.21 649.39,261.25 C648.43,260.29 647.27,259.44 646.82,259.38 C646.37,259.31 645.57,259.19 645.04,259.12 C644.51,259.06 643.16,258.02 642.04,256.81 C640.92,255.61 640.00,254.98 640.00,255.41 C640.00,256.36 630.79,251.11 629.79,249.59 C629.39,248.99 628.72,248.48 628.29,248.45 C626.48,248.34 623.00,246.81 623.00,246.13 C623.00,245.73 621.42,244.83 619.50,244.14 C617.58,243.44 616.00,242.45 616.00,241.94 C616.00,241.42 615.36,241.00 614.57,241.00 C613.79,241.00 612.53,240.38 611.77,239.63 C611.02,238.88 609.42,237.95 608.21,237.57 C607.00,237.18 605.25,236.11 604.33,235.18 C603.40,234.26 602.27,233.44 601.82,233.38 C601.37,233.31 600.57,233.19 600.04,233.12 C599.51,233.06 598.16,232.02 597.04,230.81 C595.92,229.61 595.00,228.98 595.00,229.41 C595.00,230.36 585.79,225.11 584.79,223.59 C584.39,222.99 583.61,222.44 583.04,222.38 C582.47,222.31 581.58,222.19 581.07,222.12 C580.56,222.06 579.36,221.21 578.39,220.25 C577.43,219.29 576.27,218.44 575.82,218.38 C575.37,218.31 574.58,218.19 574.07,218.12 C573.56,218.06 572.54,217.44 571.80,216.75 C571.05,216.06 568.26,214.39 565.58,213.03 C562.90,211.68 560.02,209.88 559.18,209.03 C558.33,208.19 557.27,207.44 556.82,207.38 C556.37,207.31 555.57,207.19 555.04,207.12 C554.51,207.06 553.16,206.02 552.04,204.81 C550.92,203.61 550.00,202.98 550.00,203.41 C550.00,204.36 540.79,199.11 539.79,197.59 C539.39,196.99 538.61,196.44 538.04,196.38 C537.47,196.31 536.58,196.19 536.07,196.12 C535.56,196.06 534.36,195.21 533.39,194.25 C532.43,193.29 531.27,192.44 530.82,192.38 C530.37,192.31 529.57,192.19 529.04,192.12 C528.51,192.06 527.16,191.02 526.04,189.81 C524.92,188.61 524.00,187.98 524.00,188.41 C524.00,189.36 514.79,184.11 513.79,182.59 C513.39,181.99 512.61,181.44 512.04,181.38 C511.47,181.31 510.57,181.19 510.04,181.12 C509.51,181.06 508.16,180.02 507.04,178.81 C505.92,177.61 505.00,176.98 505.00,177.41 C505.00,178.36 495.79,173.11 494.79,171.59 C494.39,170.99 493.61,170.44 493.04,170.38 C492.47,170.31 491.58,170.19 491.07,170.12 C490.56,170.06 489.36,169.21 488.39,168.25 C487.43,167.29 486.27,166.44 485.82,166.38 C485.37,166.31 484.57,166.19 484.04,166.12 C483.51,166.06 482.16,165.02 481.04,163.81 C479.92,162.61 479.00,161.95 479.00,162.35 C479.00,162.74 478.10,162.59 477.00,162.00 C475.01,160.93 475.00,161.24 475.00,242.46 L 475.00 324.00 L 615.44 324.00 C726.74,324.00 756.03,323.74 756.60,322.75 ZM 771.76 940.75 L 771.50 977.50 L 709.16 977.76 C659.46,977.96 646.91,977.76 647.23,976.76 C647.55,975.76 770.28,904.00 771.66,904.00 C771.86,904.00 771.91,920.54 771.76,940.75 ZM 214.41 344.57 C202.91,351.20 184.84,361.65 174.25,367.77 L 155.00 378.91 L 155.00 331.96 C155.00,306.13 155.35,285.00 155.78,285.00 C157.40,285.00 235.32,330.55 235.32,331.50 C235.32,332.05 225.91,337.93 214.41,344.57 ZM 767.00 942.11 C767.00,915.23 766.80,911.14 765.46,910.62 C764.60,910.29 763.68,910.67 763.37,911.48 C762.88,912.76 759.92,914.31 757.71,914.45 C757.28,914.48 756.61,914.97 756.21,915.55 C755.22,917.01 746.00,922.25 746.00,921.35 C746.00,920.95 745.08,921.61 743.96,922.81 C742.84,924.02 741.49,925.06 740.96,925.12 C740.43,925.19 739.63,925.31 739.18,925.38 C738.73,925.44 737.57,926.29 736.61,927.25 C735.64,928.21 734.44,929.06 733.93,929.12 C733.42,929.19 732.53,929.31 731.96,929.38 C731.39,929.44 730.56,930.09 730.11,930.82 C729.67,931.54 728.62,932.23 727.79,932.35 C726.96,932.48 725.51,933.35 724.57,934.29 C723.63,935.23 721.77,936.27 720.43,936.61 C719.09,936.94 718.00,937.59 718.00,938.04 C718.00,938.74 714.73,940.30 712.93,940.45 C712.61,940.48 711.57,941.29 710.61,942.25 C709.64,943.21 708.44,944.06 707.93,944.12 C707.42,944.19 706.53,944.31 705.96,944.38 C705.39,944.44 704.61,944.99 704.21,945.59 C703.21,947.11 694.00,952.36 694.00,951.41 C694.00,950.98 693.08,951.61 691.96,952.81 C690.84,954.02 689.49,955.06 688.96,955.12 C688.43,955.19 687.53,955.31 686.96,955.38 C686.39,955.44 685.61,955.99 685.21,956.59 C684.21,958.11 675.00,963.36 675.00,962.41 C675.00,961.98 674.08,962.61 672.96,963.81 C671.84,965.02 670.49,966.06 669.96,966.12 C669.43,966.19 668.63,966.31 668.18,966.38 C667.73,966.44 666.57,967.29 665.61,968.25 C664.65,969.21 662.77,970.27 661.43,970.61 C653.75,972.53 663.80,973.00 713.00,973.00 L 767.00 973.00 ZM 163.83 370.34 C164.81,368.86 174.00,363.67 174.00,364.59 C174.00,365.02 174.92,364.39 176.04,363.19 C177.16,361.98 178.51,360.94 179.04,360.88 C179.57,360.81 180.37,360.69 180.82,360.62 C181.27,360.56 182.40,359.74 183.33,358.82 C184.25,357.89 186.02,356.82 187.26,356.43 C188.49,356.05 189.77,355.31 190.10,354.80 C190.43,354.29 191.38,353.77 192.21,353.65 C193.04,353.52 194.49,352.65 195.43,351.71 C196.37,350.77 198.23,349.73 199.57,349.39 C200.91,349.06 202.00,348.41 202.00,347.96 C202.00,347.21 205.38,345.67 207.29,345.55 C207.72,345.52 208.39,345.01 208.79,344.41 C209.79,342.89 219.00,337.64 219.00,338.59 C219.00,339.02 219.92,338.39 221.04,337.19 C222.90,335.19 224.27,334.58 226.22,334.87 C227.37,335.05 228.93,331.49 228.18,330.39 C227.81,329.84 226.07,328.81 224.32,328.10 C222.57,327.40 220.89,326.15 220.58,325.35 C220.27,324.54 219.60,324.13 219.09,324.45 C218.58,324.76 217.54,324.40 216.78,323.64 C216.03,322.88 214.42,321.95 213.21,321.57 C212.00,321.18 210.25,320.11 209.33,319.18 C208.40,318.26 207.27,317.44 206.82,317.38 C206.37,317.31 205.57,317.19 205.04,317.12 C204.51,317.06 203.16,316.02 202.04,314.81 C200.92,313.61 200.00,312.98 200.00,313.41 C200.00,314.36 190.79,309.11 189.79,307.59 C189.39,306.99 188.61,306.44 188.04,306.38 C187.47,306.31 186.58,306.19 186.07,306.12 C185.56,306.06 184.36,305.21 183.39,304.25 C182.43,303.29 181.27,302.44 180.82,302.38 C180.37,302.31 179.57,302.19 179.04,302.12 C178.51,302.06 177.16,301.02 176.04,299.81 C174.92,298.61 174.00,297.98 174.00,298.41 C174.00,299.33 164.81,294.14 163.83,292.66 C163.46,292.10 162.23,291.51 161.08,291.33 C159.00,291.01 159.00,291.04 159.00,331.50 C159.00,371.96 159.00,371.99 161.08,371.67 C162.23,371.49 163.46,370.90 163.83,370.34 Z"/>
<path class="icon-light" d="M 0.00 566.00 L 0.00 0.00 L 463.00 0.00 L 926.00 0.00 L 926.00 566.00 L 926.00 1132.00 L 463.00 1132.00 L 0.00 1132.00 L 0.00 566.00 ZM 691.04 931.25 L 772.00 884.50 L 772.00 762.46 L 772.00 640.41 L 513.63 491.20 C371.53,409.14 254.42,342.02 253.38,342.05 C252.35,342.07 229.90,354.61 203.50,369.92 L 155.50 397.74 L 155.25 687.87 L 155.00 978.00 L 382.54 978.00 L 610.09 978.00 L 691.04 931.25 ZM 771.76 940.75 C771.91,920.54 771.86,904.00 771.66,904.00 C770.28,904.00 647.55,975.76 647.23,976.76 C646.91,977.76 659.46,977.96 709.16,977.76 L 771.50 977.50 L 771.76 940.75 ZM 720.00 531.14 L 771.50 501.35 L 771.76 423.18 L 772.01 345.00 L 613.01 345.00 L 454.00 345.00 L 454.00 250.00 L 454.00 155.00 L 304.49 155.00 L 154.98 155.00 L 155.24 210.15 L 155.50 265.29 L 411.50 413.14 C552.30,494.45 667.72,560.97 668.00,560.96 C668.28,560.94 691.67,547.53 720.00,531.14 ZM 214.41 344.57 C225.91,337.93 235.32,332.05 235.32,331.50 C235.32,330.55 157.40,285.00 155.78,285.00 C155.35,285.00 155.00,306.13 155.00,331.96 L 155.00 378.91 L 174.25 367.77 C184.84,361.65 202.91,351.20 214.41,344.57 ZM 770.32 328.25 C770.66,327.66 475.50,156.44 471.93,155.17 C470.87,154.79 470.60,327.27 471.67,328.33 C472.59,329.26 769.78,329.18 770.32,328.25 Z"/>
</g>
</svg>
